<svg class="svg-icon" style="width: 1em; height: 1em;vertical-align: middle;fill: currentColor;overflow: hidden;" viewBox="0 0 1024 1024" version="1.1" xmlns="http://www.w3.org/2000/svg"><path d="M142.222222 170.666667m-56.888889 0a56.888889 56.888889 0 1 0 113.777778 0 56.888889 56.888889 0 1 0-113.777778 0Z" fill="" /><path d="M312.888889 113.777778h625.777778v113.777778H312.888889z" fill="" /><path d="M142.222222 398.222222m-56.888889 0a56.888889 56.888889 0 1 0 113.777778 0 56.888889 56.888889 0 1 0-113.777778 0Z" fill="" /><path d="M312.888889 341.333333h625.777778v113.777778H312.888889z" fill="" /><path d="M142.222222 625.777778m-56.888889 0a56.888889 56.888889 0 1 0 113.777778 0 56.888889 56.888889 0 1 0-113.777778 0Z" fill="" /><path d="M312.888889 568.888889h625.777778v113.777778H312.888889z" fill="" /><path d="M142.222222 853.333333m-56.888889 0a56.888889 56.888889 0 1 0 113.777778 0 56.888889 56.888889 0 1 0-113.777778 0Z" fill="" /><path d="M312.888889 796.444444h625.777778v113.777778H312.888889z" fill="" /></svg>